<svg width="24" height="24" viewBox="0 0 24 24" fill="none" xmlns="http://www.w3.org/2000/svg">
<path d="M23 10.784C23 9.64308 22.5139 8.58736 21.6777 7.86824C21.7267 7.61998 21.7514 7.36685 21.7514 7.11119C21.7514 5.14861 20.2982 3.52785 18.4381 3.32268C17.8641 1.93211 16.5245 1 15.0193 1C13.7759 1 12.6742 1.63109 12 2.59685C11.3258 1.63109 10.2241 1 8.98075 1C7.47555 1 6.13588 1.93211 5.56192 3.32268C3.70177 3.52785 2.24864 5.14861 2.24864 7.11119C2.24864 7.36685 2.27332 7.61998 2.32231 7.86824C1.48611 8.58736 1 9.64308 1 10.784C1 11.7134 1.32269 12.5893 1.903 13.2753C1.31672 14.0855 1 15.0627 1 16.091C1 18.7035 3.07099 20.829 5.61662 20.829C5.62094 20.829 5.62526 20.829 5.62958 20.829C5.88614 21.3782 6.27136 21.865 6.74727 22.2334C7.39511 22.7349 8.16742 23 8.98075 23C10.2241 23 11.3258 22.3689 12 21.4032C12.6742 22.3689 13.7759 23 15.0193 23C15.8326 23 16.6049 22.7349 17.2527 22.2334C17.7286 21.865 18.1139 21.3782 18.3704 20.829C20.9222 20.8348 23 18.708 23 16.091C23 15.0627 22.6833 14.0855 22.097 13.2753C22.6773 12.5893 23 11.7134 23 10.784ZM8.8926 21.5537C7.90073 21.5537 7.00571 20.8903 6.68955 19.9314L6.69008 19.9314C6.61072 19.6912 6.56703 19.4343 6.56703 19.167C6.56703 18.6132 6.7559 18.0737 7.09883 17.6478C7.3429 17.3448 7.30132 16.8961 7.00602 16.6456C6.71072 16.3952 6.27351 16.4379 6.02948 16.7409C5.48152 17.4213 5.17974 18.283 5.17974 19.167C5.17974 19.233 5.18158 19.2985 5.1849 19.3637C3.56521 19.187 2.29914 17.7768 2.29914 16.0684C2.29914 15.2447 2.59029 14.4684 3.122 13.86L3.12266 13.8607C3.6424 13.2648 4.36848 12.8624 5.18452 12.7733C5.16163 13.2344 5.22034 13.7005 5.36433 14.1526C5.45997 14.4528 5.73156 14.6434 6.02351 14.6434C6.09494 14.6434 6.16758 14.632 6.23918 14.608C6.60332 14.4858 6.802 14.0839 6.68295 13.7102C6.28452 12.4593 6.95196 11.1089 8.17084 10.7C8.53498 10.5779 8.73366 10.1759 8.61461 9.80221C8.49556 9.42851 8.10403 9.22443 7.73976 9.34678C7.58101 9.40005 7.42776 9.46429 7.27969 9.53726C7.00329 8.81099 7.194 7.95303 7.81021 7.42904C8.10517 7.17817 8.14615 6.72943 7.90174 6.42668C7.65733 6.12397 7.22004 6.08196 6.92503 6.33274C6.26729 6.8921 5.86115 7.68087 5.78143 8.55371C5.72199 9.20449 5.84956 9.84383 6.1441 10.4069C5.92415 10.6563 5.73449 10.9367 5.58219 11.2448C5.56805 11.2734 5.55537 11.3025 5.54196 11.3313C5.53742 11.3312 5.53302 11.3306 5.52847 11.3306C4.51035 11.3306 3.5683 11.6707 2.80418 12.2459C2.47911 11.8282 2.29914 11.3097 2.29914 10.7614C2.29914 9.9323 2.70947 9.17472 3.39677 8.73485C3.67352 8.55771 3.79266 8.20664 3.68292 7.89138C3.59325 7.63368 3.54778 7.36361 3.54778 7.08858C3.54778 5.77256 4.59105 4.70189 5.87339 4.70189C5.89265 4.70189 5.96674 4.7045 5.97436 4.7045C6.28795 4.7045 6.5639 4.48787 6.64468 4.1749C6.9142 3.13053 7.83858 2.40111 8.8926 2.40111C10.1749 2.40111 11.2182 3.47177 11.2182 4.78779V19.167C11.2182 20.483 10.1749 21.5537 8.8926 21.5537ZM21.0195 12.2459C20.2553 11.6708 19.3133 11.3306 18.2952 11.3306C18.2907 11.3306 18.2863 11.3312 18.2817 11.3313C18.2683 11.3025 18.2556 11.2734 18.2415 11.2448C18.0892 10.9367 17.8995 10.6563 17.6796 10.4069C17.9741 9.84383 18.1017 9.20449 18.0423 8.55371C17.9625 7.68087 17.5564 6.8921 16.8987 6.33274C16.6036 6.08191 16.1664 6.12393 15.922 6.42668C15.6775 6.72943 15.7185 7.17817 16.0135 7.42904C16.6297 7.95303 16.8204 8.81099 16.544 9.53726C16.3959 9.46429 16.2427 9.40005 16.0839 9.34678C15.7197 9.22452 15.3281 9.42851 15.2091 9.80221C15.09 10.1759 15.2887 10.5779 15.6529 10.7C16.8717 11.1089 17.5392 12.4593 17.1407 13.7102C17.0217 14.0839 17.2204 14.4858 17.5845 14.608C17.6561 14.632 17.7288 14.6434 17.8002 14.6434C18.0921 14.6434 18.3637 14.4528 18.4594 14.1526C18.6034 13.7005 18.6621 13.2344 18.6392 12.7732C19.407 12.8572 20.095 13.2186 20.6067 13.7574L20.6072 13.7566C21.1988 14.3791 21.5246 15.1973 21.5246 16.0684C21.5246 17.7768 20.2584 19.187 18.6387 19.3637C18.6421 19.2985 18.644 19.233 18.644 19.167C18.644 18.283 18.3422 17.4213 17.7942 16.7409C17.5502 16.4378 17.113 16.3952 16.8177 16.6456C16.5224 16.8961 16.4808 17.3448 16.7249 17.6478C17.0678 18.0737 17.2567 18.6132 17.2567 19.167C17.2567 19.4233 17.2168 19.6702 17.1435 19.9018C17.1431 19.9031 17.1427 19.9044 17.1423 19.9057C17.1319 19.9382 17.121 19.9704 17.1093 20.0023C16.7732 20.9228 15.8983 21.5537 14.9311 21.5537C13.6488 21.5537 12.6055 20.483 12.6055 19.167V4.78779C12.6055 3.47177 13.6488 2.40111 14.9311 2.40111C15.9851 2.40111 16.9095 3.13053 17.179 4.1749C17.2618 4.49551 17.5482 4.71575 17.8723 4.70411C17.8723 4.70411 17.931 4.70189 17.9503 4.70189C19.2326 4.70189 20.2759 5.77256 20.2759 7.08858C20.2759 7.36361 20.2304 7.63368 20.1408 7.89138C20.031 8.20664 20.1502 8.55771 20.4269 8.73485C21.1142 9.17472 21.5246 9.9323 21.5246 10.7614C21.5246 11.3097 21.3446 11.8282 21.0195 12.2459Z" fill="black" stroke="black" stroke-width="0.35"/>
</svg>
