<svg width="22" height="20" viewBox="0 0 22 20" fill="none" xmlns="http://www.w3.org/2000/svg">
<path d="M19.1617 7.44443L19.3995 7.36171C20.9569 6.82406 22 5.39032 22 3.79114C22 1.69912 20.2509 0 18.0974 0C15.9439 0 14.1948 1.69912 14.1948 3.79114C14.1948 5.39032 15.2414 6.82406 16.7954 7.36171L17.0331 7.44443V14.4236C17.0331 15.2128 16.3732 15.8573 15.5572 15.8573C14.9505 15.8573 14.4148 15.5023 14.1877 14.9578L9.78842 4.27365C9.23851 2.93641 7.92582 2.07479 6.44283 2.07479C4.45606 2.07479 2.83825 3.64639 2.83825 5.57643V12.5556L2.60055 12.6383C1.04306 13.1759 0 14.6097 0 16.2089C0 18.3009 1.74907 20 3.9026 20C6.05612 20 7.80519 18.3009 7.80519 16.2089C7.80519 14.6097 6.75859 13.1759 5.20464 12.6383L4.96694 12.5556V5.57643C4.96694 4.78718 5.62683 4.14268 6.44283 4.14268C7.04951 4.14268 7.58523 4.49767 7.81229 5.04222L12.2116 15.7264C12.7615 17.0636 14.0742 17.9252 15.5572 17.9252C17.5439 17.9252 19.1617 16.3536 19.1617 14.4236V7.44443ZM5.68005 16.202C5.68005 17.1532 4.88534 17.9252 3.90614 17.9252C2.92695 17.9252 2.13224 17.1532 2.13224 16.202C2.13224 15.2507 2.92695 14.4787 3.90614 14.4787C4.88534 14.4787 5.68005 15.2507 5.68005 16.202ZM18.0974 5.51784C17.1182 5.51784 16.3235 4.74582 16.3235 3.79459C16.3235 2.84336 17.1182 2.07134 18.0974 2.07134C19.0766 2.07134 19.8713 2.84336 19.8713 3.79459C19.8713 4.74582 19.0766 5.51784 18.0974 5.51784Z" fill="black"/>
</svg>
